<svg xmlns="http://www.w3.org/2000/svg" width="83" height="24" viewBox="0 0 83 24" fill="none"><path d="M8.45336 23.867C6.69224 23.867 5.17998 23.4803 3.91657 22.7069C2.66082 21.9336 1.6922 20.8654 1.01073 19.5025C0.336909 18.1318 0 16.5545 0 14.7704C0 12.9787 0.344566 11.3975 1.0337 10.0269C1.72283 8.64861 2.69527 7.57663 3.95103 6.81093C5.21444 6.03757 6.70756 5.65089 8.43039 5.65089C9.86225 5.65089 11.1295 5.91505 12.2321 6.44339C13.3424 6.96407 14.2268 7.70297 14.8853 8.6601C15.5438 9.60957 15.919 10.7198 16.0108 11.9909H12.0368C11.8761 11.141 11.4932 10.4327 10.8883 9.86608C10.291 9.2918 9.49089 9.00466 8.48782 9.00466C7.63789 9.00466 6.89133 9.23438 6.24814 9.6938C5.60495 10.1456 5.10341 10.7964 4.74353 11.6463C4.39131 12.4963 4.21519 13.5147 4.21519 14.7015C4.21519 15.9036 4.39131 16.9373 4.74353 17.8026C5.09575 18.6602 5.58963 19.3225 6.22516 19.7896C6.86835 20.249 7.62257 20.4787 8.48782 20.4787C9.10038 20.4787 9.64786 20.3639 10.1302 20.1342C10.6203 19.8968 11.0299 19.5561 11.3592 19.1119C11.6885 18.6678 11.9143 18.128 12.0368 17.4925H16.0108C15.9113 18.7406 15.5438 19.847 14.9082 20.8118C14.2727 21.7689 13.4075 22.5193 12.3125 23.063C11.2175 23.599 9.93117 23.867 8.45336 23.867Z" fill="#000000"></path><path d="M29.699 16.1027V5.8806H33.8567V23.5224H29.8253V20.3868H29.6415C29.2434 21.3746 28.5887 22.1824 27.6775 22.8103C26.774 23.4382 25.6599 23.7521 24.3352 23.7521C23.179 23.7521 22.1568 23.4956 21.2686 22.9826C20.388 22.4619 19.6989 21.7077 19.2012 20.7199C18.7035 19.7245 18.4546 18.5224 18.4546 17.1135V5.8806H22.6124V16.4703C22.6124 17.5882 22.9187 18.4764 23.5312 19.1349C24.1438 19.7934 24.9478 20.1227 25.9432 20.1227C26.5558 20.1227 27.1492 19.9734 27.7235 19.6747C28.2977 19.3761 28.7686 18.932 29.1362 18.3424C29.5114 17.7452 29.699 16.9986 29.699 16.1027Z" fill="#000000"></path><path d="M37.3457 23.5224V0H41.5035V8.79793H41.6757C41.8901 8.36913 42.1926 7.91354 42.5831 7.43115C42.9736 6.9411 43.5019 6.52379 44.1681 6.17922C44.8343 5.827 45.6842 5.65089 46.7179 5.65089C48.0809 5.65089 49.3098 5.99928 50.4048 6.69607C51.5074 7.3852 52.3803 8.40742 53.0235 9.76271C53.6743 11.1103 53.9997 12.7643 53.9997 14.7245C53.9997 16.6617 53.682 18.308 53.0464 19.6632C52.4109 21.0185 51.5457 22.0522 50.4507 22.7643C49.3557 23.4764 48.1153 23.8325 46.7294 23.8325C45.7187 23.8325 44.8802 23.664 44.2141 23.3271C43.5479 22.9902 43.0119 22.5844 42.6061 22.1097C42.2079 21.6273 41.8978 21.1717 41.6757 20.7429H41.4346V23.5224H37.3457ZM41.4231 14.7015C41.4231 15.8424 41.5839 16.8416 41.9055 17.6992C42.2347 18.5568 42.7056 19.2268 43.3182 19.7092C43.9384 20.1839 44.6888 20.4213 45.5693 20.4213C46.4882 20.4213 47.2577 20.1763 47.8779 19.6862C48.4982 19.1885 48.9652 18.5109 49.2792 17.6533C49.6008 16.788 49.7616 15.8041 49.7616 14.7015C49.7616 13.6065 49.6046 12.6341 49.2907 11.7842C48.9767 10.9342 48.5096 10.2681 47.8894 9.78568C47.2692 9.30329 46.4958 9.06209 45.5693 9.06209C44.6811 9.06209 43.9269 9.29563 43.3067 9.76271C42.6865 10.2298 42.2156 10.8845 41.894 11.7267C41.58 12.569 41.4231 13.5606 41.4231 14.7015Z" fill="#000000"></path><path d="M64.3743 23.867C62.6055 23.867 61.0779 23.4994 59.7915 22.7643C58.5128 22.0216 57.5289 20.9726 56.8398 19.6173C56.1506 18.2544 55.8061 16.6502 55.8061 14.8049C55.8061 12.9901 56.1506 11.3975 56.8398 10.0269C57.5366 8.64861 58.509 7.57663 59.7571 6.81093C61.0052 6.03757 62.4715 5.65089 64.1561 5.65089C65.2434 5.65089 66.2694 5.827 67.2342 6.17922C68.2066 6.52379 69.0642 7.05978 69.8069 7.7872C70.5573 8.51462 71.1469 9.44112 71.5757 10.5667C72.0045 11.6846 72.2189 13.0169 72.2189 14.5637V15.8386H57.7586V13.0361H68.2334C68.2258 12.2398 68.0535 11.5315 67.7166 10.9113C67.3797 10.2834 66.9088 9.78951 66.3038 9.42963C65.7066 9.06975 65.0098 8.88981 64.2135 8.88981C63.3636 8.88981 62.617 9.09655 61.9738 9.51003C61.3306 9.91585 60.8291 10.4518 60.4692 11.118C60.117 11.7765 59.937 12.5001 59.9294 13.2888V15.7352C59.9294 16.7612 60.117 17.6418 60.4922 18.3769C60.8674 19.1043 61.3919 19.6632 62.0657 20.0538C62.7395 20.4366 63.5282 20.628 64.4317 20.628C65.0366 20.628 65.5841 20.5438 66.0741 20.3754C66.5642 20.1992 66.9892 19.9427 67.349 19.6058C67.7089 19.2689 67.9807 18.8516 68.1645 18.3539L72.0466 18.7903C71.8016 19.8164 71.3345 20.7123 70.6454 21.478C69.9639 22.236 69.091 22.8256 68.0267 23.2467C66.9624 23.6602 65.7449 23.867 64.3743 23.867Z" fill="#000000"></path><rect x="76.2617" y="17.1289" width="6.73818" height="6.73818" rx="3.36909" fill="url(#paint0_linear_890_68132)"></rect><defs><linearGradient id="paint0_linear_890_68132" x1="76.2617" y1="17.1289" x2="83.397" y2="17.5795" gradientUnits="userSpaceOnUse"><stop stop-color="#445EB6"></stop><stop offset="0.515266" stop-color="#5348C9"></stop><stop offset="1" stop-color="#6540D6"></stop></linearGradient></defs></svg>